<svg xmlns="http://www.w3.org/2000/svg" width="716.8000000000001" height="819.2" viewBox="-1792 -2048 3584 4096">
<rect x="-1792" y="-2048" width="3584" height="4096" fill="#342f2a"/>
<rect x="-1792" y="1792" width="3584" height="256" fill="#a97956" stroke="#5f4434" stroke-width="8"/>
<rect x="-1792" y="1664" width="1280" height="128" fill="#a97956" stroke="#5f4434" stroke-width="8"/>
<rect x="512" y="1664" width="1280" height="128" fill="#a97956" stroke="#5f4434" stroke-width="8"/>
<rect x="-1792" y="1408" width="768" height="256" fill="#a97956" stroke="#5f4434" stroke-width="8"/>
<rect x="1024" y="1536" width="768" height="128" fill="#a97956" stroke="#5f4434" stroke-width="8"/>
<rect x="1280" y="-1024" width="512" height="2560" fill="#a97956" stroke="#5f4434" stroke-width="8"/>
<rect x="-1792" y="-512" width="640" height="1920" fill="#a97956" stroke="#5f4434" stroke-width="8"/>
<rect x="-384" y="896" width="128" height="512" fill="#a97956" stroke="#5f4434" stroke-width="8"/>
<rect x="256" y="-512" width="512" height="1920" fill="#a97956" stroke="#5f4434" stroke-width="8"/>
<rect x="-768" y="896" width="384" height="384" fill="#a97956" stroke="#5f4434" stroke-width="8"/>
<rect x="768" y="-768" width="128" height="1792" fill="#a97956" stroke="#5f4434" stroke-width="8"/>
<rect x="-768" y="-512" width="512" height="1152" fill="#a97956" stroke="#5f4434" stroke-width="8"/>
<rect x="-1792" y="-2048" width="256" height="1536" fill="#a97956" stroke="#5f4434" stroke-width="8"/>
<rect x="-256" y="-1024" width="512" height="256" fill="#a97956" stroke="#5f4434" stroke-width="8"/>
<rect x="-384" y="-1024" width="128" height="128" fill="#a97956" stroke="#5f4434" stroke-width="8"/>
<rect x="1408" y="-1280" width="384" height="256" fill="#a97956" stroke="#5f4434" stroke-width="8"/>
<rect x="-768" y="-2048" width="1664" height="768" fill="#a97956" stroke="#5f4434" stroke-width="8"/>
<rect x="1664" y="-2048" width="128" height="768" fill="#a97956" stroke="#5f4434" stroke-width="8"/>
<rect x="896" y="-2048" width="128" height="640" fill="#a97956" stroke="#5f4434" stroke-width="8"/>
<rect x="-1536" y="-2048" width="768" height="512" fill="#a97956" stroke="#5f4434" stroke-width="8"/>
<rect x="1024" y="-2048" width="640" height="256" fill="#a97956" stroke="#5f4434" stroke-width="8"/>
<text x="0" y="1600" text-anchor="middle" dominant-baseline="central" font-family="sans-serif" font-size="48" fill="#f5ead8">T Spawn</text>
<text x="0" y="1024" text-anchor="middle" dominant-baseline="central" font-family="sans-serif" font-size="48" fill="#f5ead8">Lower Mid</text>
<text x="0" y="0" text-anchor="middle" dominant-baseline="central" font-family="sans-serif" font-size="48" fill="#f5ead8">Mid</text>
<text x="0" y="-640" text-anchor="middle" dominant-baseline="central" font-family="sans-serif" font-size="48" fill="#f5ead8">Top Mid</text>
<text x="-640" y="-704" text-anchor="middle" dominant-baseline="central" font-family="sans-serif" font-size="48" fill="#f5ead8">Short</text>
<text x="-1152" y="-1152" text-anchor="middle" dominant-baseline="central" font-family="sans-serif" font-size="48" fill="#f5ead8">A Site</text>
<text x="-768" y="-832" text-anchor="middle" dominant-baseline="central" font-family="sans-serif" font-size="48" fill="#f5ead8">A Porch</text>
<text x="-1344" y="-768" text-anchor="middle" dominant-baseline="central" font-family="sans-serif" font-size="48" fill="#f5ead8">A Pit</text>
<text x="-64" y="-1152" text-anchor="middle" dominant-baseline="central" font-family="sans-serif" font-size="48" fill="#f5ead8">Library</text>
<text x="512" y="-768" text-anchor="middle" dominant-baseline="central" font-family="sans-serif" font-size="48" fill="#f5ead8">Arch</text>
<text x="768" y="-1024" text-anchor="middle" dominant-baseline="central" font-family="sans-serif" font-size="48" fill="#f5ead8">CT Spawn</text>
<text x="1152" y="-1216" text-anchor="middle" dominant-baseline="central" font-family="sans-serif" font-size="48" fill="#f5ead8">Ruins</text>
<text x="1344" y="-1536" text-anchor="middle" dominant-baseline="central" font-family="sans-serif" font-size="48" fill="#f5ead8">B Site</text>
<text x="704" y="1536" text-anchor="middle" dominant-baseline="central" font-family="sans-serif" font-size="48" fill="#f5ead8">Banana Start</text>
<text x="1024" y="1280" text-anchor="middle" dominant-baseline="central" font-family="sans-serif" font-size="48" fill="#f5ead8">Banana Bend</text>
<text x="1088" y="-128" text-anchor="middle" dominant-baseline="central" font-family="sans-serif" font-size="48" fill="#f5ead8">Banana</text>
<text x="-704" y="1472" text-anchor="middle" dominant-baseline="central" font-family="sans-serif" font-size="48" fill="#f5ead8">Alt Mid Start</text>
<text x="-960" y="576" text-anchor="middle" dominant-baseline="central" font-family="sans-serif" font-size="48" fill="#f5ead8">Alt Mid</text>
<text x="-576" y="768" text-anchor="middle" dominant-baseline="central" font-family="sans-serif" font-size="48" fill="#f5ead8">Second Mid</text>
<text x="-960" y="-256" text-anchor="middle" dominant-baseline="central" font-family="sans-serif" font-size="48" fill="#f5ead8">Apartments</text>
<circle cx="0" cy="1600" r="42" fill="#d07b4a"/>
<circle cx="768" cy="-1024" r="42" fill="#6b8fb3"/>
</svg>
